# xmcd
#
# Track frame offsets: 
#        150
#        19961
#        36394
#        60721
#        77735
#        99718
#        119852
#        135929
#        156715
#        172352
#        189886
#        221182
#
# Disc length: 3190 seconds
#
# Revision: 2
# Processed by: cddbd v1.5.2PL0 Copyright (c) Steve Scherf et al.
# Submitted via: ExactAudioCopy v1.0b3
#
DISCID=b90c740c
DTITLE=KSK - Starlight and Dirt
DYEAR=2002
DGENRE=R&B
TTITLE0=I Remember
TTITLE1=Caught My Eye
TTITLE2=Tonight
TTITLE3=Your Brown Eyes
TTITLE4=Could It Be
TTITLE5=Vine Of Life
TTITLE6=Can You
TTITLE7=If You Were Here Beside Me
TTITLE8=Phoenyx
TTITLE9=Your Sweetness
TTITLE10=Starlight and Dirt
TTITLE11=For You
EXTD=
EXTT0=
EXTT1=
EXTT2=
EXTT3=
EXTT4=
EXTT5=
EXTT6=
EXTT7=
EXTT8=
EXTT9=
EXTT10=
EXTT11=
PLAYORDER=
